<svg width="68" height="77" viewBox="0 0 68 77" fill="none" xmlns="http://www.w3.org/2000/svg">
<path d="M1.87823 1.87823H9.19581C10.3636 1.87823 11.394 2.94547 11.7336 4.5068L23.1891 57.1668C23.5287 58.728 24.5591 59.7953 25.7268 59.7953H51.5373C52.751 59.7953 53.8101 58.6442 54.1084 57.0002L58.7299 31.5469C59.0282 29.9028 60.0873 28.7518 61.3009 28.7518H65.8685" stroke="white" stroke-width="3.75648" stroke-linecap="round"/>
<path d="M39.7159 16.6487C39.3274 16.106 38.6977 16.106 38.3092 16.6487L31.9791 25.4948C31.5908 26.0376 31.5908 26.9177 31.9791 27.4605C32.3676 28.0033 32.9974 28.0033 33.3859 27.4605L39.0125 19.5975L44.6392 27.4605C45.0277 28.0033 45.6574 28.0033 46.0459 27.4605C46.4343 26.9177 46.4343 26.0376 46.0459 25.4948L39.7159 16.6487ZM40.0072 43.5785V17.6317H38.0179V43.5785H40.0072Z" fill="white"/>
<path d="M32.0499 75.0854C33.6979 75.0854 35.0339 73.2184 35.0339 70.9154C35.0339 68.6123 33.6979 66.7454 32.0499 66.7454C30.4018 66.7454 29.0659 68.6123 29.0659 70.9154C29.0659 73.2184 30.4018 75.0854 32.0499 75.0854Z" stroke="white" stroke-width="3.00518"/>
<path d="M48.942 75.2183C50.59 75.2183 51.926 73.3513 51.926 71.0483C51.926 68.7452 50.59 66.8782 48.942 66.8782C47.2939 66.8782 45.9579 68.7452 45.9579 71.0483C45.9579 73.3513 47.2939 75.2183 48.942 75.2183Z" stroke="white" stroke-width="3.00518"/>
</svg>
